<svg width="26" height="26" viewBox="0 0 26 26" fill="none" xmlns="http://www.w3.org/2000/svg">
<path d="M20.2702 12.5865L21.0909 17.9224C21.3937 19.8911 19.8705 21.6665 17.8787 21.6665H8.12179C6.12987 21.6665 4.60664 19.891 4.9096 17.9222L5.73069 12.5864L8.8449 12.0674C9.36727 11.9803 9.75014 11.5284 9.75014 10.9988V9.74984C9.75014 9.15153 10.2352 8.6665 10.8335 8.6665H15.1668C15.7651 8.6665 16.2501 9.15153 16.2501 9.74984V10.9988C16.2501 11.5284 16.633 11.9803 17.1554 12.0674L20.2702 12.5865Z" stroke="black" stroke-width="1.5" stroke-linejoin="round"/>
<path d="M5.62566 12.604L8.84477 12.0675C9.36714 11.9804 9.75 11.5285 9.75 10.9989V9.74995C9.75 9.15164 10.235 8.66662 10.8333 8.66662H15.1667C15.765 8.66662 16.25 9.15164 16.25 9.74995V10.9989C16.25 11.5285 16.6329 11.9804 17.1552 12.0675L20.3743 12.604C21.6179 12.8113 22.75 11.8523 22.75 10.5915C22.75 8.20087 21.0896 6.13097 18.7559 5.61236L17.7002 5.37776C14.6045 4.68983 11.3955 4.68983 8.29984 5.37776L7.24414 5.61236C4.91041 6.13097 3.25 8.20087 3.25 10.5915C3.25 11.8523 4.38207 12.8113 5.62566 12.604Z" stroke="#36C6FA" stroke-width="1.5" stroke-linejoin="round"/>
<path d="M15.1667 16.25C15.1667 17.4466 14.1966 18.4166 13 18.4166C11.8034 18.4166 10.8333 17.4466 10.8333 16.25C10.8333 15.0533 11.8034 14.0833 13 14.0833C14.1966 14.0833 15.1667 15.0533 15.1667 16.25Z" stroke="#36C6FA" stroke-width="1.5" stroke-linejoin="round"/>
</svg>
