<svg width="26" height="26" viewBox="0 0 26 26" fill="none" xmlns="http://www.w3.org/2000/svg">
<path d="M13 5.4169H17.875C18.7725 5.4169 19.5 6.2657 19.5 7.31274M13 20.5836H17.875C18.7725 20.5836 19.5 19.7348 19.5 18.6877M13 5.95124V20.0492C13 21.4354 11.7164 22.465 10.3633 22.1643L4.94665 20.9606C3.95532 20.7403 3.25 19.861 3.25 18.8455V7.15494C3.25 6.13943 3.95532 5.26017 4.94665 5.03987L10.3633 3.83617C11.7164 3.53547 13 4.56512 13 5.95124Z" stroke="black" stroke-width="1.5" stroke-linecap="round"/>
<path d="M9.75 11.9167V14.0833M22.75 13L16.25 13M22.75 13L19.5 16.25M22.75 13L19.5 9.75" stroke="#36C6FA" stroke-width="1.5" stroke-linecap="round" stroke-linejoin="round"/>
</svg>
