<svg fill="none" height="43" viewBox="0 0 44 43" width="44" xmlns="http://www.w3.org/2000/svg" xmlns:xlink="http://www.w3.org/1999/xlink"><filter id="a" color-interpolation-filters="sRGB" filterUnits="userSpaceOnUse" height="23.4045" width="37.782" x="3.08472" y="6.67129"><feFlood flood-opacity="0" result="BackgroundImageFix"/><feColorMatrix in="SourceAlpha" type="matrix" values="0 0 0 0 0 0 0 0 0 0 0 0 0 0 0 0 0 0 127 0"/><feOffset/><feGaussianBlur stdDeviation="2"/><feColorMatrix type="matrix" values="0 0 0 0 0 0 0 0 0 0 0 0 0 0 0 0 0 0 0.15 0"/><feBlend in2="BackgroundImageFix" mode="normal" result="effect1_dropShadow"/><feBlend in="SourceGraphic" in2="effect1_dropShadow" mode="normal" result="shape"/></filter><filter id="b" color-interpolation-filters="sRGB" filterUnits="userSpaceOnUse" height="23.4045" width="37.782" x="3.08472" y="9.75218"><feFlood flood-opacity="0" result="BackgroundImageFix"/><feColorMatrix in="SourceAlpha" type="matrix" values="0 0 0 0 0 0 0 0 0 0 0 0 0 0 0 0 0 0 127 0"/><feOffset/><feGaussianBlur stdDeviation="2"/><feColorMatrix type="matrix" values="0 0 0 0 0 0 0 0 0 0 0 0 0 0 0 0 0 0 0.15 0"/><feBlend in2="BackgroundImageFix" mode="normal" result="effect1_dropShadow"/><feBlend in="SourceGraphic" in2="effect1_dropShadow" mode="normal" result="shape"/></filter><filter id="c" color-interpolation-filters="sRGB" filterUnits="userSpaceOnUse" height="23.4045" width="37.782" x="3.08472" y="11.8061"><feFlood flood-opacity="0" result="BackgroundImageFix"/><feColorMatrix in="SourceAlpha" type="matrix" values="0 0 0 0 0 0 0 0 0 0 0 0 0 0 0 0 0 0 127 0"/><feOffset/><feGaussianBlur stdDeviation="2"/><feColorMatrix type="matrix" values="0 0 0 0 0 0 0 0 0 0 0 0 0 0 0 0 0 0 0.15 0"/><feBlend in2="BackgroundImageFix" mode="normal" result="effect1_dropShadow"/><feBlend in="SourceGraphic" in2="effect1_dropShadow" mode="normal" result="shape"/></filter><filter id="d" color-interpolation-filters="sRGB" filterUnits="userSpaceOnUse" height="20.3236" width="37.782" x="3.08472" y="14.887"><feFlood flood-opacity="0" result="BackgroundImageFix"/><feColorMatrix in="SourceAlpha" type="matrix" values="0 0 0 0 0 0 0 0 0 0 0 0 0 0 0 0 0 0 127 0"/><feOffset/><feGaussianBlur stdDeviation="2"/><feColorMatrix type="matrix" values="0 0 0 0 0 0 0 0 0 0 0 0 0 0 0 0 0 0 0.15 0"/><feBlend in2="BackgroundImageFix" mode="normal" result="effect1_dropShadow"/><feBlend in="SourceGraphic" in2="effect1_dropShadow" mode="normal" result="shape"/></filter><filter id="e" color-interpolation-filters="sRGB" filterUnits="userSpaceOnUse" height="20.3236" width="39.836" x="2.05774" y="16.941"><feFlood flood-opacity="0" result="BackgroundImageFix"/><feColorMatrix in="SourceAlpha" type="matrix" values="0 0 0 0 0 0 0 0 0 0 0 0 0 0 0 0 0 0 127 0"/><feOffset/><feGaussianBlur stdDeviation="2"/><feColorMatrix type="matrix" values="0 0 0 0 0 0 0 0 0 0 0 0 0 0 0 0 0 0 0.15 0"/><feBlend in2="BackgroundImageFix" mode="normal" result="effect1_dropShadow"/><feBlend in="SourceGraphic" in2="effect1_dropShadow" mode="normal" result="shape"/></filter><linearGradient id="f" gradientUnits="userSpaceOnUse" x1="21.9758" x2="21.9758" y1="19.9138" y2="22.9941"><stop offset=".0038" stop-color="#d3d1c8"/><stop offset=".2318" stop-color="#c4c3bb"/><stop offset=".6887" stop-color="#a5a59f"/><stop offset="1" stop-color="#8c8d88"/></linearGradient><mask id="g" height="25" maskUnits="userSpaceOnUse" width="32" x="6" y="9"><path d="m6.05774 12.7763c0-1.7297 1.40775-3.13197 3.14429-3.13197h25.54737c1.7366 0 3.1443 1.40227 3.1443 3.13197v15.7903c0 2.5946-2.1116 4.698-4.7164 4.698h-22.4031c-2.60484 0-4.71646-2.1034-4.71646-4.698z" fill="#c4c4c4"/></mask><path d="m.922852 14.9281c0-5.13835 0-7.7075 1.015828-9.66306.85603-1.64792 2.19968-2.99157 3.8476-3.8476 1.95556-1.015829 4.52472-1.015829 9.66302-1.015829h13.0527c5.1384 0 7.7075 0 9.6631 1.015829 1.6479.85603 2.9915 2.19968 3.8476 3.8476 1.0158 1.95556 1.0158 4.52471 1.0158 9.66306v13.0527c0 5.1383 0 7.7075-1.0158 9.663-.8561 1.6479-2.1997 2.9916-3.8476 3.8476-1.9556 1.0159-4.5247 1.0159-9.6631 1.0159h-13.0527c-5.1383 0-7.70746 0-9.66302-1.0159-1.64792-.856-2.99157-2.1997-3.8476-3.8476-1.015828-1.9555-1.015828-4.5247-1.015828-9.663z" fill="#000"/><g mask="url(#g)"><path d="m37.8937 11.7855v21.4791h-31.83596v-21.5022c0-1.82149 1.34596-3.14505 3.00609-3.14505h25.82257c1.6601 0 3.0061 1.31204 3.0061 3.14505.0012.0077.0012.0154.0012.0231z" fill="#d3d1c8"/><path d="m37.8937 19.914h-31.83596v3.0809h31.83596z" fill="url(#f)"/><g filter="url(#a)"><path d="m7.08472 26.0745v-11.5546-1.1738c0-.1028 0-.2044 0-.3072 0-.0865.00124-.1718.00374-.2583.00499-.1881.01622-.3762.04865-.5618.03369-.1881.08858-.3637.17591-.5343.08484-.168.19587-.3222.32936-.4552.13349-.1329.28694-.2445.45412-.3298.16967-.0865.34433-.1417.53271-.1755.18464-.0339.37303-.0439.56016-.0489.08608-.0026.17092-.0038.257-.0038h.30566 1.16897 23.1949-1.0842 1.169.3057c.086 0 .1709.0012.257.0038.1871.005.3755.0163.5601.0489.1872.0338.3618.089.5327.1755.1672.0853.3207.1969.4529.3311.1322.1329.2445.2872.3294.4552.0873.1705.1422.3461.1759.5342.0336.1856.0436.375.0486.5618.0025.0866.0038.1718.0038.2584v.3072 1.1738 11.5546h-29.78208z" fill="#319dcc"/></g><g filter="url(#b)"><path d="m7.08472 29.1567v-11.5546-1.1738c0-.1028 0-.2044 0-.3073 0-.0865.00124-.1718.00374-.2583.00499-.1881.01622-.3762.04866-.5618.03368-.1881.08858-.3637.17591-.5342.08484-.168.19588-.3223.32937-.4552.13225-.1329.28571-.2446.45289-.3311.16968-.0865.34435-.1417.53274-.1755.18465-.0339.37304-.0439.56018-.049.08609-.0025.17093-.0037.25701-.0037h.30567 1.16901 23.1958-1.0841 1.169.3057c.086 0 .1709.0012.257.0037.1871.0051.3755.0163.5602.049.1871.0338.3618.089.5327.1755.1672.0853.3206.1969.4529.3311.1322.1329.2445.2872.3293.4552.0874.1705.1423.3461.176.5342.0336.1856.0436.375.0486.5618.0025.0865.0038.1718.0038.2583v.3073 1.1738 11.5546z" fill="#fdb921"/></g><g filter="url(#c)"><path d="m7.08472 31.2106v-11.5546-1.1738c0-.1028 0-.2044 0-.3072 0-.0866.00124-.1718.00374-.2584.00499-.1881.01622-.3762.04866-.5618.03368-.1881.08858-.3636.17591-.5342.08484-.168.19588-.3223.32937-.4552.13225-.1329.28571-.2445.45289-.3311.16968-.0865.34435-.1417.53274-.1755.18465-.0339.37304-.0439.56018-.0489.08609-.0025.17093-.0038.25701-.0038h.30567 1.16901 23.1958-1.0841 1.169.3057c.086 0 .1709.0013.257.0038.1871.005.3755.0163.5602.0489.1871.0338.3618.089.5327.1755.1672.0853.3206.1969.4529.3311.1322.1329.2445.2872.3293.4552.0874.1706.1423.3461.176.5342.0336.1856.0436.375.0486.5618.0025.0866.0038.1718.0038.2584v.3072 1.1738 11.5546z" fill="#71bf49"/></g><g filter="url(#d)"><path d="m7.08472 31.2106v-8.5836-1.1403c0-.0999 0-.1986 0-.2985 0-.084.00124-.1669.00374-.2509.00499-.1827.01622-.3655.04866-.5458.03368-.1827.08858-.3533.17591-.5189.08484-.1633.19588-.3131.32937-.4423.13225-.1291.28571-.2375.45289-.3216.16968-.084.34435-.1376.53274-.1705.18465-.0329.37304-.0427.56018-.0475.08609-.0025.17093-.0037.25701-.0037h.30567 1.16901 23.1958-1.0841 1.169.3057c.086 0 .1709.0012.257.0037.1871.0048.3755.0158.5602.0475.1871.0329.3618.0865.5327.1705.1672.0829.3206.1913.4529.3216.1322.1292.2445.279.3293.4423.0874.1656.1423.3362.176.5189.0336.1803.0436.3643.0486.5458.0025.084.0038.1669.0038.2509v.2985 1.1403 8.5836z" fill="#f37163"/></g><path d="m37.8937 33.2646h-31.83596v-12.3236h7.73096c.1895 0 .3802 0 .5697.0012.1602.0013.3203.0025.4792.0076.3484.0101.6993.0303 1.044.0947.3497.0645.6748.1706.9927.3373-.0672-.0354.8741.3638 1.7005 1.6914.5965.9575 1.7555 1.9731 3.3777 1.9731s2.7824-1.0156 3.3777-1.9731c.7849-1.2606 1.6577-1.6699 1.6993-1.6914.3178-.1667.643-.2728.9926-.3373.3448-.0644.6956-.0846 1.044-.0947.1602-.0051.3203-.0063.4793-.0076.1894-.0012.3802-.0012.5696-.0012h7.7775v12.3236z" fill="#fff"/><g filter="url(#e)"><path d="m37.8937 33.2646h-31.83596v-12.3236h7.73096c.1895 0 .3802 0 .5697.0012.1602.0013.3203.0025.4792.0076.3484.0101.6993.0303 1.044.0947.3497.0645.6748.1706.9927.3373-.0672-.0354.8741.3638 1.7005 1.6914.5965.9575 1.7555 1.9731 3.3777 1.9731s2.7824-1.0156 3.3777-1.9731c.7849-1.2606 1.6577-1.6699 1.6993-1.6914.3178-.1667.643-.2728.9926-.3373.3448-.0644.6956-.0846 1.044-.0947.1602-.0051.3203-.0063.4793-.0076.1894-.0012.3802-.0012.5696-.0012h7.7775v12.3236z" fill="#d3d1c8"/></g></g></svg>