<svg fill="none" height="567" viewBox="0 0 281 567" width="281" xmlns="http://www.w3.org/2000/svg"><g fill="#f4f4f5"><path d="m2.40173 44.0521c0-24.3293 19.76347-44.0521 44.14297-44.0521h188.7113c24.379 0 44.143 19.7228 44.143 44.0521v478.6989c0 24.33-19.764 44.052-44.143 44.052h-188.7113c-24.3795 0-44.14297-19.722-44.14297-44.052z"/><path clip-rule="evenodd" d="m235.256 2.93681h-188.7113c-22.7542 0-41.2001 18.40789-41.2001 41.11529v478.6989c0 22.708 18.4459 41.116 41.2001 41.116h188.7113c22.754 0 41.2-18.408 41.2-41.116v-478.6989c0-22.7074-18.446-41.11529-41.2-41.11529zm-188.7113-2.93681c-24.3795 0-44.14297 19.7228-44.14297 44.0521v478.6989c0 24.33 19.76347 44.052 44.14297 44.052h188.7113c24.379 0 44.143-19.722 44.143-44.052v-478.6989c0-24.3293-19.764-44.0521-44.143-44.0521z" fill-rule="evenodd"/><path d="m0 90.4092c0-.4117.307223-.7454.686203-.7454h1.715507v21.6152h-1.715507c-.37898 0-.686203-.334-.686203-.745z"/><path d="m.800598 131.238c0-.411.286742-.745.640452-.745h.96069v43.231h-.96069c-.35371 0-.640452-.334-.640452-.746z"/><path d="m.800598 185.663c0-.404.286742-.731.640452-.731h.96069v42.43h-.96069c-.35371 0-.640452-.328-.640452-.732z"/><path d="m281 212.212c0 .408-.287.74-.64.74h-.961v-68.049h.961c.353 0 .64.331.64.74z"/></g><path clip-rule="evenodd" d="m7.20514 44.844c0-22.1138 17.92436-40.04059 40.03506-40.04059h187.3198c22.111 0 40.035 17.92679 40.035 40.04059v477.916c0 22.114-17.924 40.041-40.035 40.041h-187.3198c-22.1107 0-40.03506-17.927-40.03506-40.041zm8.81506-.3673c0-17.0419 13.8132-30.857 30.8527-30.857h23.1396c2.0285 0 3.6729 1.6446 3.6729 3.6734v3.3061c0 7.3037 5.92 13.2245 13.2226 13.2245h107.617c7.303 0 13.223-5.9208 13.223-13.2245v-3.3061c0-2.0288 1.644-3.6734 3.673-3.6734h23.507c17.039 0 30.852 13.8151 30.852 30.857v478.2833c0 17.042-13.813 30.857-30.852 30.857h-188.0551c-17.0395 0-30.8527-13.815-30.8527-30.857z" fill="#fff" fill-rule="evenodd"/><path d="m124.889 20.8148c0-1.3264 1.151-2.4017 2.571-2.4017h26.08c1.42 0 2.571 1.0753 2.571 2.4017 0 1.3265-1.151 2.4017-2.571 2.4017h-26.08c-1.42 0-2.571-1.0752-2.571-2.4017z" fill="#f4f4f5"/><path d="m171.322 20.8148c0 1.3265-1.255 2.4017-2.802 2.4017-1.548 0-2.802-1.0752-2.802-2.4017 0-1.3264 1.254-2.4017 2.802-2.4017 1.547 0 2.802 1.0753 2.802 2.4017z" fill="#f4f4f5"/></svg>