<?xml version="1.0" encoding="UTF-8"?>
<!DOCTYPE svg PUBLIC "-//W3C//DTD SVG 1.1//EN" "http://www.w3.org/Graphics/SVG/1.1/DTD/svg11.dtd">
<svg xmlns="http://www.w3.org/2000/svg" version="1.1" width="27px" height="27px" style="shape-rendering:geometricPrecision; text-rendering:geometricPrecision; image-rendering:optimizeQuality; fill-rule:evenodd; clip-rule:evenodd" xmlns:xlink="http://www.w3.org/1999/xlink">
<g><path style="opacity:0.786" fill="#1f1d1f" d="M 8.5,-0.5 C 11.5,-0.5 14.5,-0.5 17.5,-0.5C 24.4354,5.22627 25.2688,11.8929 20,19.5C 18.1581,21.8636 16.3247,24.1969 14.5,26.5C 13.8333,26.5 13.1667,26.5 12.5,26.5C 10.5389,24.0365 8.37219,21.7032 6,19.5C 0.816142,11.9518 1.64948,5.2851 8.5,-0.5 Z M 10.5,1.5 C 20.5265,2.40914 23.3599,7.40914 19,16.5C 17.3745,19.1277 15.3745,21.461 13,23.5C 7.29591,18.766 4.96258,12.766 6,5.5C 7.39683,3.92975 8.89683,2.59641 10.5,1.5 Z M 12.5,5.5 C 16.3958,6.78047 17.3958,9.28047 15.5,13C 10.6671,14.1668 8.8338,12.3334 10,7.5C 10.9947,6.93406 11.828,6.26739 12.5,5.5 Z"/></g>
<g><path style="opacity:0.756" fill="#1e1d1e" d="M 10.5,3.5 C 18.0895,3.15178 20.5895,6.48512 18,13.5C 12.6718,17.7674 8.83842,16.6007 6.5,10C 7.23413,7.43931 8.56746,5.27264 10.5,3.5 Z M 12.5,5.5 C 11.828,6.26739 10.9947,6.93406 10,7.5C 8.8338,12.3334 10.6671,14.1668 15.5,13C 17.3958,9.28047 16.3958,6.78047 12.5,5.5 Z"/></g>
</svg>
