<svg width="200" height="34" viewBox="0 0 200 34" fill="none" xmlns="http://www.w3.org/2000/svg">
<path d="M13.4859 27L7.18805 7.62411V7.14184H11.0746L16.181 23.7943H16.7767L21.9398 7.14184H25.8264V7.62411L19.5568 27H13.4859ZM28.5646 27V7.14184H40.905V10.5461H32.2242V15.227H39.9405V18.5461H32.2242V23.5957H41.2171V27H28.5646ZM42.841 27V26.5177L47.919 16.9291L43.0679 7.62411V7.14184H46.8977L51.0963 15.2837H51.6637L55.8055 7.14184H59.6637V7.62411L54.9544 16.9291L59.8339 26.5177V27H55.9757L51.6637 18.4894H51.0963L46.6708 27H42.841ZM78.339 27.3688C72.3248 27.3688 68.0127 22.9433 68.0127 17.0709C68.0127 11.2553 72.3532 6.77305 78.3674 6.77305C84.4383 6.77305 88.7503 11.3121 88.7503 17.0709C88.7503 22.8865 84.4099 27.3688 78.339 27.3688ZM71.8142 17.0709C71.8142 21.1277 74.7361 23.8227 78.3674 23.8227C81.9986 23.8227 84.9489 21.1277 84.9489 17.0709C84.9489 13.0709 81.9986 10.3191 78.3674 10.3191C74.7361 10.3191 71.8142 13.0709 71.8142 17.0709ZM92.1173 27V7.14184H98.9542L104.543 23.7943H105.025V7.14184H108.628V27H101.734L96.2025 10.3475H95.6918V27H92.1173Z" fill="#ffffff"/>
<path d="M61.7927 27V12.305H65.3388V27H61.7927ZM61.7643 9.97872V6.12057H65.3671V9.97872H61.7643ZM125.564 27.3688C120.996 27.3688 117.762 24.1064 117.762 19.6525C117.762 15.227 121.025 11.9362 125.564 11.9362C128.883 11.9362 131.408 13.5816 132.514 16.3901L129.45 17.9787C128.94 16.3617 127.464 15.1702 125.564 15.1702C123.152 15.1702 121.365 17.0142 121.365 19.6525C121.365 22.4043 123.181 24.1348 125.564 24.1348C127.351 24.1348 128.94 23.1418 129.535 21.2695L132.656 22.7447C131.578 25.695 128.854 27.3688 125.564 27.3688ZM139.667 27.3688C136.83 27.3688 134.589 25.5248 134.589 22.6312C134.589 19.9078 136.688 18.0355 140.035 18.0355H144.177V17.6667C144.177 16.1064 143.042 14.9433 141.255 14.9433C139.44 14.9433 138.589 16.1064 138.39 17.0709L135.241 16.1915C135.979 13.4965 138.22 11.9362 141.255 11.9362C145.482 11.9362 147.638 14.773 147.638 17.6667V23.4823C147.638 23.9929 147.922 24.1631 148.376 24.1631H148.83V27H146.759C145.312 27 144.461 26.0922 144.461 24.7872V24.1348H143.894C143.61 26.1489 142.021 27.3688 139.667 27.3688ZM138.163 22.5461C138.163 23.6809 139.156 24.4752 140.546 24.4752C143.071 24.4752 144.177 22.8865 144.177 21.0426V20.6738H140.489C139.128 20.6738 138.163 21.2695 138.163 22.5461ZM151.311 27V12.305H154.828V15.4255H155.424C155.878 13.6383 157.353 12.0496 160.077 12.0496V15.8227H158.261C156.02 15.8227 154.857 17.4113 154.857 19.2837V27H151.311ZM167.78 27.3688C163.979 27.3688 161.341 24.0213 161.341 19.6525C161.341 15.2837 164.007 11.9362 167.78 11.9362C170.248 11.9362 171.922 13.383 172.489 15.1135H173.057V5.7234H176.575V27H173.057V24.1915H172.461C171.922 26.1773 170.248 27.3688 167.78 27.3688ZM164.943 19.6525C164.943 22.3759 166.759 24.1348 169.085 24.1348C171.411 24.1348 173.199 22.234 173.199 19.6525C173.199 16.8723 171.298 15.1702 169.085 15.1702C166.759 15.1702 164.943 16.9858 164.943 19.6525ZM185.653 27.3688C182.306 27.3688 179.951 25.695 179.327 22.8865L182.504 22.0638C182.845 23.6241 184.15 24.3333 185.682 24.3333C187.611 24.3333 188.462 23.5674 188.462 22.7163C188.462 21.9787 188.008 21.4397 186.788 21.2128L184.121 20.6738C182.107 20.305 180.093 19.0567 180.093 16.3901C180.093 13.9504 182.277 11.9362 185.909 11.9362C189.086 11.9362 191.384 13.6099 191.951 16.1915L188.859 17.0142C188.632 15.7943 187.497 14.8582 185.909 14.8582C184.348 14.8582 183.526 15.5957 183.526 16.3901C183.526 17.156 184.121 17.5816 185.199 17.8085L187.696 18.2908C190.504 18.8298 191.951 20.3333 191.951 22.7163C191.951 25.5248 189.54 27.3688 185.653 27.3688Z" fill="#36C6FA"/>
</svg>
