<svg width="301" height="301" viewBox="0 0 301 301" fill="none" xmlns="http://www.w3.org/2000/svg">
<rect x="0.3" y="0.3" width="300.4" height="300.4" rx="13.7" fill="#FAFAFA"/>
<rect x="0.3" y="0.3" width="300.4" height="300.4" rx="13.7" stroke="#AAAAAA" stroke-width="0.6"/>
<path fill-rule="evenodd" clip-rule="evenodd" d="M162.189 173.126H173.127V184.064H162.189V173.126ZM173.127 184.064H184.065V195.002H173.127V184.064ZM173.127 195.002H184.065V205.939H173.127V195.002ZM195.002 195.002H205.94V205.939H195.002V195.002ZM195.002 205.939H205.94V216.877H195.002V205.939ZM162.189 195.002H173.127V205.939H162.189V195.002ZM184.065 195.002H195.002V205.939H184.065V195.002ZM184.065 205.939H195.002V216.877H184.065V205.939ZM216.878 195.002H227.815V205.939H216.878V195.002ZM216.878 184.064H227.815V195.002H216.878V184.064ZM227.815 173.126H238.753V184.064H227.815V173.126ZM205.94 195.002H216.878V205.939H205.94V195.002ZM205.94 205.939H216.878V216.877H205.94V205.939ZM195.002 216.877H205.94V227.815H195.002V216.877ZM184.065 216.877H195.002V227.815H184.065V216.877ZM205.94 216.877H216.878V227.815H205.94V216.877ZM216.878 216.877H227.815V227.815H216.878V216.877ZM195.002 227.815H205.94V238.752H195.002V227.815ZM173.127 227.815H184.065V238.752H173.127V227.815ZM184.065 227.815H195.002V238.752H184.065V227.815ZM162.189 227.815H173.127V238.752H162.189V227.815ZM162.189 238.752H173.127V249.69H162.189V238.752ZM173.127 249.69H184.065V260.628H173.127V249.69ZM184.065 249.69H195.002V260.628H184.065V249.69ZM205.94 249.69H216.878V260.628H205.94V249.69ZM216.878 249.69H227.815V260.628H216.878V249.69ZM205.94 227.815H216.878V238.752H205.94V227.815ZM216.878 227.815H227.815V238.752H216.878V227.815ZM227.815 216.877H238.753V227.815H227.815V216.877ZM227.815 205.939H238.753V216.877H227.815V205.939ZM227.815 238.752H238.753V249.69H227.815V238.752ZM227.815 227.815H238.753V238.752H227.815V227.815ZM238.753 216.877H249.69V227.815H238.753V216.877ZM238.753 205.939H249.69V216.877H238.753V205.939ZM249.69 238.752H260.628V249.69H249.69V238.752ZM249.69 216.877H260.628V227.815H249.69V216.877ZM249.69 227.815H260.628V238.752H249.69V227.815ZM227.815 195.002H238.753V205.939H227.815V195.002ZM162.189 205.939H173.127V216.877H162.189V205.939ZM151.252 205.939H162.189V216.877H151.252V205.939ZM151.252 216.877H162.189V227.815H151.252V216.877ZM173.127 216.877H184.065V227.815H173.127V216.877ZM140.314 216.877H151.252V227.815H140.314V216.877ZM162.189 216.877H173.127V227.815H162.189V216.877ZM140.314 227.815H151.252V238.752H140.314V227.815ZM140.314 238.752H151.252V249.69H140.314V238.752ZM140.314 30.937H151.252V41.8747H140.314V30.937ZM151.252 41.8747H162.189V52.8123H151.252V41.8747ZM140.314 63.75H151.252V74.6876H140.314V63.75ZM151.252 74.6876H162.189V85.6253H151.252V74.6876ZM140.314 85.6253H151.252V96.5629H140.314V85.6253ZM151.252 85.6253H162.189V96.5629H151.252V85.6253ZM151.252 96.5629H162.189V107.501H151.252V96.5629ZM151.252 107.501H162.189V118.438H151.252V107.501ZM140.314 118.438H151.252V129.376H140.314V118.438ZM151.252 118.438H162.189V129.376H151.252V118.438ZM140.314 129.376H151.252V140.313H140.314V129.376ZM30.9375 140.313H41.8751V151.251H30.9375V140.313ZM41.8751 151.251H52.8128V162.189H41.8751V151.251ZM63.7504 140.313H74.6881V151.251H63.7504V140.313ZM63.7504 151.251H74.6881V162.189H63.7504V151.251ZM74.6881 140.313H85.6257V151.251H74.6881V140.313ZM85.6257 151.251H96.5634V162.189H85.6257V151.251ZM96.5634 140.313H107.501V151.251H96.5634V140.313ZM107.501 151.251H118.439V162.189H107.501V151.251ZM107.501 140.313H118.439V151.251H107.501V140.313ZM118.439 140.313H129.376V151.251H118.439V140.313ZM129.376 140.313H140.314V151.251H129.376V140.313ZM140.314 151.251H151.252V162.189H140.314V151.251ZM162.189 151.251H173.127V162.189H162.189V151.251ZM173.127 140.313H184.065V151.251H173.127V140.313ZM184.065 140.313H195.002V151.251H184.065V140.313ZM195.002 140.313H205.94V151.251H195.002V140.313ZM184.065 162.189H195.002V173.126H184.065V162.189ZM162.189 260.628H173.127V271.565H162.189V260.628ZM151.252 260.628H162.189V271.565H151.252V260.628ZM151.252 162.189H162.189V173.126H151.252V162.189ZM140.314 162.189H151.252V173.126H140.314V162.189ZM140.314 173.126H151.252V184.064H140.314V173.126ZM140.314 184.064H151.252V195.002H140.314V184.064ZM260.628 173.126H271.566V184.064H260.628V173.126ZM249.69 184.064H260.628V195.002H249.69V184.064ZM260.628 205.939H271.566V216.877H260.628V205.939ZM205.94 162.189H216.878V173.126H205.94V162.189ZM216.878 151.251H227.815V162.189H216.878V151.251ZM260.628 151.251H271.566V162.189H260.628V151.251ZM260.628 162.189H271.566V173.126H260.628V162.189ZM249.69 162.189H260.628V173.126H249.69V162.189ZM260.628 249.69H271.566V260.628H260.628V249.69ZM249.69 260.628H260.628V271.565H249.69V260.628ZM227.815 260.628H238.753V271.565H227.815V260.628ZM260.628 260.628H271.566V271.565H260.628V260.628Z" fill="black"/>
<path fill-rule="evenodd" clip-rule="evenodd" d="M184.064 41.8745H260.628V118.438H184.064V41.8745ZM41.875 41.8745H118.439V118.438H41.875V41.8745ZM41.875 184.064H118.439V260.627H41.875V184.064ZM216.877 74.6875H227.815V85.6251H216.877V74.6875ZM74.6879 74.6875H85.6256V85.6251H74.6879V74.6875ZM74.6879 216.877H85.6256V227.815H74.6879V216.877Z" stroke="black" stroke-width="21.8753"/>
</svg>
