<svg width="26" height="26" viewBox="0 0 26 26" fill="none" xmlns="http://www.w3.org/2000/svg">
<path d="M4.33203 7.58333C4.33203 5.1901 6.27213 3.25 8.66536 3.25H17.332C19.7253 3.25 21.6654 5.1901 21.6654 7.58333V18.4167C21.6654 20.8099 19.7253 22.75 17.332 22.75H8.66536C6.27213 22.75 4.33203 20.8099 4.33203 18.4167V7.58333Z" stroke="black" stroke-width="1.5" stroke-linecap="round" stroke-linejoin="round"/>
<path d="M17.3346 14.0832H15.168C14.5697 14.0832 14.0846 14.5682 14.0846 15.1665V17.3332M8.66797 15.1665V16.2498C8.66797 16.8481 9.15299 17.3332 9.7513 17.3332H10.8346C11.4329 17.3332 11.918 16.8481 11.918 16.2498V15.1665C11.918 14.5682 11.4329 14.0832 10.8346 14.0832H9.7513C9.15299 14.0832 8.66797 14.5682 8.66797 15.1665ZM8.66797 9.74984V10.8332C8.66797 11.4315 9.15299 11.9165 9.7513 11.9165H10.8346C11.4329 11.9165 11.918 11.4315 11.918 10.8332V9.74984C11.918 9.15153 11.4329 8.6665 10.8346 8.6665H9.7513C9.15299 8.6665 8.66797 9.15153 8.66797 9.74984ZM14.0846 9.74984V10.8332C14.0846 11.4315 14.5697 11.9165 15.168 11.9165H16.2513C16.8496 11.9165 17.3346 11.4315 17.3346 10.8332V9.74984C17.3346 9.15153 16.8496 8.6665 16.2513 8.6665H15.168C14.5697 8.6665 14.0846 9.15153 14.0846 9.74984Z" stroke="#36C6FA" stroke-width="1.5" stroke-linecap="round" stroke-linejoin="round"/>
</svg>
